PathFileType	4	(X/Y/Z)	C:/Users/beibeiliu/ov580/test_trc\sequence.5_training_dense_right.trc
DataRate	CameraRate	NumFrames	NumMarkers	Units	OrigDataRate	OrigDataStartFrame	OrigNumFrames
120	120	15	19	mm	120	1	100
Frame#	Time	ThumbCMC			ThumbMCP			ThumbIP			ThumbTip			IndexMCP			IndexPIP			IndexTip			MiddleMCP			MiddlePIP			MiddleTip			RingMCP			RingPIP			RingTip			PinkyMCP			PinkyPIP			PinkyTip			BackHand1			BackHand2			BackHand3	
		X0	Y0	Z0	X1	Y1	Z1	X2	Y2	Z2	X3	Y3	Z3	X4	Y4	Z4	X5	Y5	Z5	X6	Y6	Z6	X7	Y7	Z7	X8	Y8	Z8	X9	Y9	Z9	X10	Y10	Z10	X11	Y11	Z11	X12	Y12	Z12	X13	Y13	Z13	X14	Y14	Z14	X15	Y15	Z15	X16	Y16	Z16	X17	Y17	Z17	X18	Y18	Z18	
0	0	60.3544	54.8772	85.8409	41.3029	37.2122	65.0419	38.249	27.572	42.0427	38.7119	18.4148	23.2678	61.5346	61.738	18.2559	57.4244	50.5676	-6.24157	50.5857	41.7055	-22.8059	85.5787	59.6979	11.0282	80.2494	50.8186	-12.4902	81.7153	35.2414	-35.3109	101.823	53.3397	15.962	101.045	44.255	-6.42445	101.642	32.8709	-26.117	119.275	47.6306	27.7334	124.01	40.5826	10.4252	128.949	35.1782	-4.91942	103.92	69.1195	59.6854	104.986	75.8291	86.6313	79.3338	76.597	74.8997	
1	0.00833333	57.1919	52.5296	81.2322	44.8684	35.6847	66.4406	39.3849	25.8764	41.0428	34.6909	14.5587	25.5179	60.5687	58.6188	18.7189	54.3157	49.9816	-5.83759	53.1724	37.2845	-25.7005	80.9255	57.5246	12.4459	78.2697	46.6253	-15.6031	80.0708	32.6737	-36.9584	98.6179	51.1185	14.0282	104.859	42.0701	-3.16382	99.8873	31.2126	-25.2854	117.552	45.2014	28.8769	123.462	38.1848	9.84835	124.319	32.6172	-8.14858	102.552	66.393	59.9174	104.108	72.7794	86.2066	77.4356	75.3649	71.7461	
2	0.0166667	55.712	51.5162	86.6171	44.8913	34.2876	64.1471	37.3333	24.1037	42.1656	37.0265	14.851	24.7483	60.2948	57.4184	18.3573	53.209	50.2467	-2.15353	53.2809	38.2228	-22.9745	80.099	55.3205	7.57356	77.4397	45.8762	-15.0765	79.7044	30.4201	-37.7192	101.005	49.7851	15.6531	100.354	41.6739	-2.85585	100.318	29.9716	-23.6384	117.381	44.8878	27.3855	122.434	36.8122	12.9662	124.535	33.3811	-3.8306	102.713	65.5018	58.7521	106.256	72.369	83.1117	78.9803	74.7908	72.9572	
3	0.025	54.4817	51.0536	83.4869	42.229	33.4371	66.5156	38.0155	23.8933	40.6836	35.3444	12.588	23.5601	58.123	57.5891	20.0152	52.9071	47.4796	-6.00263	54.0389	36.7474	-24.5301	84.1807	55.147	9.37207	81.3213	44.2661	-16.1476	82.1926	29.8537	-35.8358	99.5856	50.66	13.7494	101.731	40.7347	-7.10633	99.1502	29.6435	-24.3712	117.313	44.6098	28.5559	121.212	37.3217	14.6023	126.746	31.461	-7.11594	99.9445	67.2365	58.6015	104.765	70.4021	85.9834	74.7478	73.4449	69.6918	
4	0.0333333	53.7006	51.5177	81.8432	43.5848	33.8073	65.1034	37.6706	24.005	41.736	36.7924	12.8339	22.6649	59.898	56.8958	15.7503	53.2555	49.3825	-3.7457	54.5671	36.6992	-23.8732	80.1785	56.5386	12.3689	79.5192	44.1476	-16.0572	79.614	32.1697	-35.3309	99.4663	50.2412	18.4381	99.1881	40.4111	-7.81845	99.7232	29.7119	-26.5467	118.999	44.0189	31.0069	122.751	36.5409	9.44193	126.637	29.6099	-7.6481	101.312	66.2864	61.5136	108.124	71.749	85.1878	80.8936	72.979	72.7302	
5	0.0416667	54.7942	50.6519	80.2919	45.7947	33.8952	63.9798	39.6616	24.0536	45.4657	37.1877	13.7987	25.3817	57.2401	57.1383	17.2201	57.3576	48.174	-6.44597	48.2952	36.7334	-26.8471	82.8369	56.4148	11.507	82.3419	46.4943	-13.9174	79.1669	33.0202	-34.2797	98.6066	50.3553	14.1642	102.478	41.3709	-5.70598	97.4627	30.1138	-22.8824	120.797	43.478	26.8062	120.727	37.9397	11.5605	127.775	29.0648	-9.95283	105.558	64.9434	58.0765	105.37	70.262	82.4308	80.4708	72.5554	68.6266	
6	0.05	57.32	50.4679	80.7099	41.8657	34.1829	64.6172	35.0268	23.9954	41.6574	33.9301	12.8204	24.1274	58.5283	59.0513	16.684	51.96	50.7401	-6.69065	53.5331	39.2052	-26.3234	79.7537	58.8517	10.061	79.1559	47.553	-14.3322	78.2079	30.1521	-35.1092	102.336	51.6778	13.541	102.234	40.799	-6.57813	98.5476	27.2297	-22.7618	117.729	46.1518	28.2741	123.25	35.5603	8.57752	123.179	24.6238	-11.1122	102.467	67.7985	61.1249	103.368	70.604	85.1661	78.3363	72.8171	69.9167	
7	0.0583333	56.5044	53.2388	84.5631	42.5286	37.3648	63.2732	36.5063	27.8164	41.6377	34.5119	17.4244	20.9235	57.3991	65.9431	16.5564	55.5814	55.9956	-8.61724	51.1328	44.9564	-29.1009	81.7821	60.8669	8.33874	78.1774	47.0205	-15.1687	77.4102	21.2425	-32.3786	102.371	53.3343	12.7373	100.517	39.0396	-7.47832	90.3938	22.7821	-18.332	117.6	49.0133	28.7653	118.087	38.7193	9.51264	115.343	20.6723	-8.06661	102.529	71.5208	57.2044	105.279	73.0616	87.4461	77.4905	77.0379	73.6929	
8	0.0666667	59.5694	56.6952	78.8927	43.7939	39.958	62.5798	39.293	31.6839	42.4417	34.9092	20.7801	22.3188	60.776	70.4734	15.6842	55.622	64.4867	-7.37572	53.6735	54.3158	-25.4941	82.7576	62.7533	9.48164	76.6796	40.7068	-13.1034	71.5602	17.4732	-16.5419	98.8673	56.4199	16.2352	94.0664	37.7424	-2.6804	82.8845	11.2057	-4.24015	117.546	48.7643	26.1068	110.483	33.8242	8.51025	102.953	13.1783	4.97633	108.385	72.622	58.5565	109.625	73.303	84.3579	82.7327	78.4779	74.5072	
9	0.075	57.6758	59.7319	82.7749	44.5551	41.5702	60.3338	38.8881	33.8178	40.6163	36.229	23.7155	18.4364	64.5699	74.4651	15.2162	56.173	69.5747	-4.3927	53.6703	56.9637	-28.2456	78.4464	61.4802	7.15473	72.775	34.1793	-6.06474	65.5802	10.4546	4.15087	98.2408	53.5688	15.6141	87.9523	31.2308	3.70532	75.9422	10.2919	18.0292	116.594	45.0407	24.6394	103.444	27.2604	13.215	85.9442	12.7503	23.1616	104.412	72.0602	60.7419	110.277	72.983	82.865	86.3949	81.7757	74.7045	
10	0.0833333	60.5744	62.0091	78.2157	43.0218	43.9156	56.3171	37.8607	33.4481	36.5365	40.6906	23.7366	15.3803	64.2223	77.7692	18.0213	57.4556	70.6646	-9.12467	58.5969	60.7795	-27.3352	79.593	57.5896	8.93984	72.8131	30.91	0.98482	65.9295	12.0344	25.4042	95.9797	46.2461	13.7705	83.4963	23.6723	13.9182	74.186	14.8314	38.8901	112.808	39.3371	25.2119	95.2683	22.3305	23.0668	80.3939	18.9692	46.9977	106.087	72.6432	61.0118	110.683	74.3553	86.3064	86.1815	80.682	74.31	
11	0.0916667	59.6251	62.0121	81.0843	48.4703	45.546	56.7585	42.2588	34.1588	31.0172	44.9228	22.3999	11.0769	63.7397	79.2691	14.5834	61.2004	72.4495	-9.55417	56.7575	61.9102	-30.4276	77.3461	58.8127	12.0412	68.3706	27.6676	9.20313	62.6977	19.9957	39.126	92.8	43.3387	16.301	80.718	21.4188	24.8071	75.1519	26.0817	53.6939	103.227	36.7835	25.1358	88.7842	19.7111	35.4849	84.408	27.4908	59.1558	108.661	72.0677	54.3173	110.671	72.8565	83.7351	83.4497	82.9135	69.795	
12	0.1	57.6682	63.7353	78.5422	47.0633	45.6523	54.7515	43.945	33.9399	34.7637	48.5558	22.0016	14.0511	64.42	80.7648	10.8164	62.1531	72.4737	-10.4645	54.7537	65.1024	-27.6989	74.8009	54.4575	8.41663	68.3274	25.7822	16.0986	67.2908	27.0423	45.1182	89.1198	40.0787	17.8248	78.5539	20.193	34.4238	75.6722	33.7136	58.45	102.869	32.4906	26.4538	86.3844	21.646	40.5228	85.7481	35.9248	62.0923	108.619	73.2701	54.2698	110.884	71.1401	81.676	86.2733	84.6069	72.1484	
13	0.108333	62.2446	63.2923	74.4338	46.52	44.0161	53.4035	46.0295	33.3789	32.7636	49.7887	19.17	15.496	68.5646	76.9253	12.4436	63.5735	69.8256	-11.1527	55.1763	59.9017	-33.3419	81.058	53.0623	10.2709	67.7953	25.8384	14.5794	69.3598	31.5208	48.9548	90.1331	34.9038	18.4674	74.2559	23.6296	34.0355	77.8282	32.7183	58.2904	105.188	30.657	28.3197	86.7544	20.4778	45.6299	85.7924	36.2669	61.3832	109.109	70.1152	55.9904	112.095	70.0877	79.4888	87.039	84.0156	70.9003	
14	0.116667	60.2502	62.3019	74.2863	43.1426	42.3653	54.9947	44.6416	31.2922	32.9404	52.516	16.2887	11.0062	65.8225	75.9986	8.418	62.3422	65.7525	-12.8811	54.1459	58.8955	-30.4787	75.8399	51.7619	10.1463	67.6253	24.7517	14.4952	67.7488	31.6034	48.0082	91.0296	33.9713	19.3515	74.7461	19.9689	38.3806	78.8238	37.1146	60.0904	103.276	29.8265	29.2814	88.2493	15.8984	44.4739	88.2844	37.6354	64.4521	111.715	66.5028	53.9917	110.821	69.9469	81.4073	87.1138	80.7989	66.5905	
